<svg width="18" height="18" viewBox="0 0 18 18" fill="none" xmlns="http://www.w3.org/2000/svg">
<path fill-rule="evenodd" clip-rule="evenodd" d="M2.25 10.5C2.25 10.3011 2.32902 10.1103 2.46967 9.96967C2.61032 9.82902 2.80109 9.75 3 9.75H12C12.5967 9.75 13.169 9.51295 13.591 9.09099C14.0129 8.66903 14.25 8.09674 14.25 7.5V4.5C14.25 4.30109 14.329 4.11032 14.4697 3.96967C14.6103 3.82902 14.8011 3.75 15 3.75C15.1989 3.75 15.3897 3.82902 15.5303 3.96967C15.671 4.11032 15.75 4.30109 15.75 4.5V7.5C15.75 8.49456 15.3549 9.44839 14.6517 10.1517C13.9484 10.8549 12.9946 11.25 12 11.25H3C2.80109 11.25 2.61032 11.171 2.46967 11.0303C2.32902 10.8897 2.25 10.6989 2.25 10.5Z" fill="#C5BFB6"/>
<path fill-rule="evenodd" clip-rule="evenodd" d="M2.46975 11.0302C2.32915 10.8896 2.25016 10.6989 2.25016 10.5C2.25016 10.3011 2.32915 10.1104 2.46975 9.96975L5.46975 6.96975C5.6112 6.83313 5.80065 6.75754 5.9973 6.75924C6.19395 6.76095 6.38206 6.83983 6.52111 6.97889C6.66017 7.11794 6.73905 7.30605 6.74076 7.5027C6.74246 7.69935 6.66687 7.8888 6.53025 8.03025L4.0605 10.5L6.53025 12.9697C6.60188 13.0389 6.65902 13.1217 6.69833 13.2132C6.73763 13.3047 6.75832 13.4031 6.75919 13.5027C6.76005 13.6023 6.74108 13.701 6.70337 13.7932C6.66566 13.8854 6.60997 13.9691 6.53955 14.0395C6.46913 14.11 6.38539 14.1657 6.29322 14.2034C6.20104 14.2411 6.10228 14.2601 6.0027 14.2592C5.90311 14.2583 5.8047 14.2376 5.7132 14.1983C5.62169 14.159 5.53894 14.1019 5.46975 14.0303L2.46975 11.0302V11.0302Z" fill="#C5BFB6"/>
</svg>
